<?xml version="1.0" encoding="UTF-8" standalone="no"?>
<!-- Created with Inkscape (http://www.inkscape.org/) -->

<svg
   width="176.99998"
   height="255.95506"
   viewBox="0 0 46.831243 67.72144"
   version="1.1"
   id="svg5"
   xml:space="preserve"
   inkscape:version="1.2.1 (1:1.2.1+202210291243+9c6d41e410)"
   sodipodi:docname="SD_Moldes.svg"
   xmlns:inkscape="http://www.inkscape.org/namespaces/inkscape"
   xmlns:sodipodi="http://sodipodi.sourceforge.net/DTD/sodipodi-0.dtd"
   xmlns:xlink="http://www.w3.org/1999/xlink"
   xmlns="http://www.w3.org/2000/svg"
   xmlns:svg="http://www.w3.org/2000/svg"><sodipodi:namedview
     id="namedview7"
     pagecolor="#ffffff"
     bordercolor="#000000"
     borderopacity="0.25"
     inkscape:showpageshadow="2"
     inkscape:pageopacity="0.0"
     inkscape:pagecheckerboard="0"
     inkscape:deskcolor="#d1d1d1"
     inkscape:document-units="mm"
     showgrid="true"
     inkscape:zoom="0.78038721"
     inkscape:cx="519.61385"
     inkscape:cy="517.05102"
     inkscape:window-width="1920"
     inkscape:window-height="1011"
     inkscape:window-x="1920"
     inkscape:window-y="0"
     inkscape:window-maximized="1"
     inkscape:current-layer="layer1"><inkscape:grid
       type="xygrid"
       id="grid182"
       spacingx="1.0583333"
       spacingy="1.0583333"
       empspacing="4" /></sodipodi:namedview><defs
     id="defs2"><linearGradient
       inkscape:collect="always"
       id="linearGradient30857"><stop
         style="stop-color:#ffffff;stop-opacity:1;"
         offset="0"
         id="stop30853" /><stop
         style="stop-color:#cbcbcb;stop-opacity:1;"
         offset="1"
         id="stop30855" /></linearGradient><linearGradient
       inkscape:collect="always"
       id="linearGradient22009"><stop
         style="stop-color:#c52d31;stop-opacity:1;"
         offset="0"
         id="stop22005" /><stop
         style="stop-color:#612d2d;stop-opacity:1;"
         offset="1"
         id="stop22007" /></linearGradient><linearGradient
       inkscape:collect="always"
       id="linearGradient18525"><stop
         style="stop-color:#e5ddb3;stop-opacity:1;"
         offset="0"
         id="stop18521" /><stop
         style="stop-color:#ecc625;stop-opacity:1;"
         offset="1"
         id="stop18523" /></linearGradient><radialGradient
       inkscape:collect="always"
       xlink:href="#linearGradient18525"
       id="radialGradient18550"
       cx="103.71666"
       cy="56.287518"
       fx="103.71666"
       fy="56.287518"
       r="21.166668"
       gradientTransform="matrix(-1.3407474,-2.9810991e-5,-2.8040777e-7,-1.3407472,242.77451,131.75794)"
       gradientUnits="userSpaceOnUse" /><radialGradient
       inkscape:collect="always"
       xlink:href="#linearGradient22009"
       id="radialGradient22011"
       cx="103.71666"
       cy="56.285175"
       fx="103.71666"
       fy="56.285175"
       r="21.166668"
       gradientTransform="matrix(-1.3408581,0,-1.1110457e-7,-1.3408576,242.78599,131.75558)"
       gradientUnits="userSpaceOnUse" /><radialGradient
       inkscape:collect="always"
       xlink:href="#linearGradient30857"
       id="radialGradient30859"
       cx="104.19738"
       cy="54.893513"
       fx="104.19738"
       fy="54.893513"
       r="18.891811"
       gradientTransform="matrix(1,0,0,1.0157746,0,-0.86592054)"
       gradientUnits="userSpaceOnUse" /><radialGradient
       inkscape:collect="always"
       xlink:href="#linearGradient30857"
       id="radialGradient32087"
       gradientUnits="userSpaceOnUse"
       gradientTransform="matrix(1,0,0,1.0157746,0,-0.86592054)"
       cx="104.19738"
       cy="54.893513"
       fx="104.19738"
       fy="54.893513"
       r="18.891811" /></defs><g
     inkscape:label="Capa 1"
     inkscape:groupmode="layer"
     id="layer1"
     transform="translate(-102.10514,-14.935838)"><g
       id="g32085"
       transform="translate(21.671808,0.10728618)"><path
         id="rect5118-0"
         style="fill:url(#radialGradient18550);fill-opacity:1;stroke:#000000;stroke-width:0.264583;stroke-dasharray:none;stroke-opacity:1"
         d="m 113.067,32.130337 c -1.65439,3.133179 -4.76691,5.572209 -8.29201,5.929354 v 15.931327 h 20.10834 V 35.983332 c -3.12969,-1.594636 -7.20894,-3.14843 -11.81633,-3.852995 z M 82.549996,56.107685 v 15.875 c 0,4.233329 11.324214,8.255975 20.108324,8.462015 V 56.107685 Z"
         sodipodi:nodetypes="cccccccsccc" /><circle
         style="fill:#ecc625;fill-opacity:1;stroke:none;stroke-width:0.23151;stroke-dasharray:none;stroke-opacity:1"
         id="path5282-9-1"
         cx="103.71667"
         cy="27.516666"
         r="7.4083295" /><path
         id="path5282-9-1-2"
         style="fill:#ecc625;fill-opacity:1;stroke:none;stroke-width:0.396874;stroke-dasharray:none;stroke-opacity:1"
         d="m 104.24583,14.828552 v 4.247286 c 0.38505,0.02154 0.76817,0.06937 1.1467,0.143144 l 1.09709,-4.095874 c -0.73767,-0.16476 -1.48858,-0.263337 -2.24379,-0.294556 z m -1.05833,0.0098 c -0.7545,0.03117 -1.50471,0.129575 -2.24172,0.294039 l 1.09502,4.086572 c 0.37853,-0.07378 0.76165,-0.121601 1.1467,-0.143144 z m 4.32428,0.559139 -1.09915,4.102075 c 0.365,0.12286 0.72118,0.270481 1.06608,0.441833 l 2.12339,-3.677294 c -0.6696,-0.350494 -1.36915,-0.640516 -2.09032,-0.866614 z m -7.587647,0.0088 c -0.721189,0.224572 -1.420905,0.513037 -2.090828,0.861963 l 2.121317,3.67316 c 0.344898,-0.171353 0.701088,-0.318973 1.066088,-0.441833 z m 10.594707,1.386995 -2.11926,3.671094 c 0.31966,0.215477 0.62423,0.452534 0.91158,0.709517 l 3.00395,-3.003951 c -0.5566,-0.511428 -1.15774,-0.972143 -1.79627,-1.37666 z m -13.601758,0.0041 C 96.27782,17.2005 95.675813,17.659831 95.118225,18.16995 l 3.003951,3.003951 c 0.28735,-0.256982 0.591916,-0.49404 0.911572,-0.709517 z m -2.547132,2.120801 c -0.510119,0.557588 -0.96945,1.159595 -1.372526,1.798857 l 3.66696,2.116666 c 0.215477,-0.319656 0.452535,-0.624222 0.709517,-0.911572 z m 18.69343,0 -3.00395,3.003951 c 0.25698,0.28735 0.49404,0.591916 0.70952,0.911572 l 3.67109,-2.11925 c -0.40452,-0.638533 -0.86523,-1.239677 -1.37666,-1.796273 z m 1.90583,2.713013 -3.6773,2.123384 c 0.17135,0.344899 0.31898,0.701088 0.44184,1.066085 l 4.10207,-1.099158 c -0.2261,-0.721168 -0.51612,-1.420715 -0.86661,-2.090311 z m -22.500952,0.0026 c -0.348898,0.669757 -0.637362,1.369299 -0.861963,2.090311 l 4.09329,1.096574 c 0.12286,-0.364997 0.27048,-0.721186 0.441833,-1.066085 z m 23.641972,3.109887 -4.09588,1.097091 c 0.0738,0.378527 0.1216,0.761653 0.14315,1.1467 h 4.24728 c -0.0312,-0.755205 -0.12979,-1.506116 -0.29455,-2.243791 z m -24.77782,0.0021 c -0.164464,0.737014 -0.262867,1.487227 -0.294039,2.241724 h 4.237467 c 0.02154,-0.385047 0.06937,-0.768173 0.143144,-1.1467 z m -0.294039,3.300057 c 0.03117,0.754497 0.129575,1.50471 0.294039,2.241724 l 4.086572,-1.095024 c -0.07377,-0.378527 -0.121601,-0.761653 -0.143144,-1.1467 z m 21.119129,0 c -0.0216,0.385047 -0.0694,0.768173 -0.14315,1.1467 l 4.09588,1.097091 c 0.16476,-0.737675 0.26333,-1.488586 0.29455,-2.243791 z"
         sodipodi:nodetypes="cccccccccccccccccccccccccccccccccccccccccccccccccccccccccccccccccccccc" /><path
         id="rect5118-0-2"
         style="fill:url(#radialGradient22011);fill-opacity:1;stroke:#000000;stroke-width:0.264583;stroke-dasharray:none;stroke-opacity:1"
         d="m 94.367363,32.12617 c -4.608877,0.705721 -8.688611,2.260948 -11.817366,3.857162 V 53.985851 H 102.65832 V 38.054524 c -3.524488,-0.35726 -6.636509,-2.795827 -8.290957,-5.928321 z m 10.407627,23.976348 v 24.341666 c 8.6555,-0.158335 20.10834,-4.233337 20.10834,-8.205184 V 56.102518 Z"
         sodipodi:nodetypes="cccccscccscc" /><g
         id="g30783"
         style="fill:#c7c7c7;fill-opacity:0.996933;stroke:#000000;stroke-width:0.264583;stroke-dasharray:none;stroke-opacity:1"><g
           id="g30765"
           style="fill:url(#radialGradient30859);fill-opacity:1;stroke:#000000;stroke-width:0.264583;stroke-dasharray:none;stroke-opacity:1"><path
             id="rect535"
             style="fill:url(#radialGradient32087);fill-opacity:1;stroke:#000000;stroke-width:0.264583;stroke-dasharray:none;stroke-opacity:1"
             d="m 92.562826,35.837089 c -1.216587,0.01252 -2.455302,0.134052 -3.61115,0.501261 -1.521771,0.525795 -2.429549,1.531329 -2.437577,2.549199 -0.008,1.017869 0.544968,1.905379 1.327568,2.387451 1.447041,0.891362 3.68921,0.873269 4.492232,0.991154 3.063903,0.440834 4.165591,0.924322 4.877738,2.142505 1.051233,1.798201 0.572311,4.147149 -1.102258,5.408455 -1.256147,0.946148 -3.156962,1.15319 -4.876188,1.108976 -1.719224,-0.04421 -3.98787,-1.038696 -3.98787,-1.038696 0,0 -0.190686,-1.002104 -0.190686,-2.272729 0,-0.539843 0.147277,-1.603003 0.147277,-1.603003 l -0.98857,-0.06408 c 0,0 -0.04812,1.067344 -0.28112,2.415356 -0.233001,1.348016 -0.471289,2.288233 -0.471289,2.288233 0,0 2.668437,1.217543 4.940267,1.358573 2.271835,0.141034 3.291905,-0.0039 5.357813,-0.4408 2.065907,-0.43691 4.484367,-2.584072 4.466907,-5.448246 -0.0174,-2.864175 -2.7204,-4.601097 -6.540166,-4.95422 -3.819762,-0.353117 -5.157308,-1.528407 -5.157308,-2.253609 0,-0.725196 0.596991,-1.472559 1.600936,-1.886706 1.003944,-0.414153 3.507839,-0.56507 3.71812,-0.315227 0.305337,0.844518 0.259932,2.545582 0.259932,2.545582 0,0 0.590758,-0.886141 1.02216,-1.597319 0.431398,-0.711177 0.911055,-1.669149 0.911055,-1.669149 -1.067069,-0.06886 -2.26124,-0.16548 -3.477823,-0.152961 z m -4.153235,7.008358 v 0.453202 h 0.21394 c 0.233021,0 0.420971,0.006 0.56379,0.0186 0.142822,0.0063 0.248095,0.02837 0.315743,0.06614 0.07517,0.03149 0.124214,0.07863 0.146761,0.141594 0.02255,0.05667 0.03359,0.135419 0.03359,0.236161 v 5.308203 c 0,0.107044 -0.01104,0.191805 -0.03359,0.254765 -0.02255,0.05667 -0.0716,0.100812 -0.146761,0.132292 -0.06765,0.03148 -0.172924,0.05355 -0.315743,0.06615 -0.142819,0.0063 -0.330769,0.0093 -0.56379,0.0093 h -0.21394 v 0.453719 h 3.946012 c 1.037313,0 1.864092,-0.144966 2.480469,-0.434598 0.601339,-0.289635 1.059924,-0.701942 1.375626,-1.237134 0.315705,-0.541492 0.473873,-1.187046 0.473873,-1.936316 0,-0.680009 -0.142761,-1.278417 -0.428397,-1.794723 -0.285637,-0.522599 -0.699546,-0.934908 -1.240751,-1.237133 -0.323221,-0.176302 -0.714015,-0.3022 -1.172539,-0.377755 -0.451004,-0.08185 -1.018197,-0.122473 -1.702221,-0.122473 z m 3.258199,0.453202 h 0.597896 c 0.503625,0 0.935755,0.05969 1.296562,0.179317 0.360802,0.119632 0.657884,0.30522 0.890901,0.557072 0.233024,0.251857 0.401714,0.576396 0.506946,0.973067 0.112752,0.390378 0.169499,0.859362 0.169499,1.40715 0,0.554081 -0.04904,1.029599 -0.146761,1.426269 -0.09772,0.390377 -0.255368,0.711393 -0.473356,0.963249 -0.210469,0.251857 -0.484951,0.43744 -0.823206,0.557072 -0.338256,0.113335 -0.744459,0.170015 -1.218013,0.170015 H 91.66779 c -0.150337,0 -0.270503,-0.006 -0.360702,-0.0186 -0.0902,-0.0126 -0.157988,-0.03819 -0.203088,-0.07597 -0.0451,-0.03778 -0.07488,-0.09094 -0.08992,-0.160196 -0.01503,-0.07556 -0.02274,-0.173374 -0.02274,-0.293006 v -5.128369 c 0,-0.119635 0.0077,-0.213928 0.02274,-0.283187 0.01503,-0.07556 0.04482,-0.132235 0.08992,-0.170015 0.0451,-0.04408 0.112889,-0.07268 0.203088,-0.08527 0.0902,-0.01259 0.210367,-0.0186 0.360702,-0.0186 z m 23.9081,15.053862 c -1.27208,0 -2.43653,0.204811 -3.49384,0.614949 -1.0408,0.396911 -1.99917,1.012373 -2.87476,1.845882 -0.82603,0.793819 -1.43699,1.640236 -1.83348,2.539897 -0.39649,0.886431 -0.5948,1.865632 -0.5948,2.937288 0,1.124578 0.21487,2.156583 0.64441,3.095935 0.44605,0.939353 1.05701,1.746296 1.83348,2.421041 0.77647,0.674746 1.69342,1.204336 2.75073,1.588017 1.07384,0.370451 2.24657,0.555522 3.51865,0.555522 2.09811,0 3.78342,-0.46294 5.05551,-1.389063 1.27208,-0.926122 2.05701,-2.269063 2.35438,-4.028694 l -1.23921,-0.178801 c -0.13216,0.555672 -0.27248,1.031945 -0.42116,1.428853 -0.14869,0.383679 -0.33871,0.72768 -0.56999,1.031979 -0.52866,0.740897 -1.20589,1.290228 -2.03192,1.647444 -0.82603,0.357219 -1.76783,0.535368 -2.82515,0.535368 -1.9329,0 -3.36194,-0.535481 -4.28707,-1.607137 -0.90864,-1.084886 -1.36323,-2.752091 -1.36323,-5.001245 0,-1.190728 0.0994,-2.189667 0.29766,-2.996716 0.21477,-0.820279 0.53681,-1.547755 0.96635,-2.182813 0.41301,-0.595364 0.98307,-1.058305 1.70997,-1.389062 0.74343,-0.343989 1.52783,-0.516248 2.35386,-0.516248 0.92515,0 1.76807,0.185071 2.52801,0.555522 0.77647,0.370449 1.41228,0.893117 1.9079,1.567863 0.23129,0.343987 0.45445,0.747716 0.66921,1.210779 0.23129,0.44983 0.49534,1.078107 0.79271,1.885156 h 1.13999 l -0.37156,-5.993433 h -0.99115 l -1.04077,1.210779 c -0.46257,-0.277843 -0.88403,-0.502905 -1.264,-0.674894 -0.36345,-0.185227 -0.71864,-0.330826 -1.06557,-0.436666 -0.34693,-0.10584 -0.70212,-0.178385 -1.06557,-0.218075 -0.36345,-0.03969 -0.76005,-0.05943 -1.18959,-0.05943 z m -3.84473,4.549593 v 0.437182 h 0.16899 c 0.18954,0 0.34014,0.0062 0.45268,0.01809 0.11252,0.0059 0.19575,0.02685 0.24908,0.06253 0.0592,0.02974 0.0974,0.07437 0.11524,0.133841 0.0178,0.05352 0.0269,0.127576 0.0269,0.222726 v 3.853511 c 0,0.321133 -0.0148,0.58277 -0.0444,0.784965 -0.0296,0.196248 -0.0861,0.353901 -0.16898,0.47284 -0.077,0.112992 -0.1865,0.193239 -0.32866,0.240812 -0.13624,0.04163 -0.317,0.06872 -0.54209,0.08061 v 0.436666 h 2.6479 v -0.436666 c -0.22508,-0.01189 -0.40584,-0.03899 -0.54208,-0.08061 -0.13624,-0.04757 -0.24574,-0.127821 -0.32867,-0.240812 -0.077,-0.118939 -0.13008,-0.276592 -0.15968,-0.47284 -0.0237,-0.202195 -0.0357,-0.463832 -0.0357,-0.784965 V 63.5 l 2.21226,6.145878 h 0.37311 L 117.8972,63.5 v 5.27203 c 0,0.1011 -0.009,0.181345 -0.0264,0.240812 -0.0118,0.05352 -0.0477,0.09532 -0.10697,0.125057 -0.0592,0.02973 -0.1448,0.05012 -0.25735,0.06201 -0.10662,0.0059 -0.25487,0.0093 -0.44441,0.0093 h -0.16847 v 0.436666 h 3.03857 v -0.436666 h -0.16898 c -0.18955,0 -0.34066,-0.0034 -0.4532,-0.0093 -0.11251,-0.01189 -0.19808,-0.03228 -0.25735,-0.06201 -0.0533,-0.02973 -0.0892,-0.07154 -0.10697,-0.125057 -0.0119,-0.05947 -0.0176,-0.139714 -0.0176,-0.240812 v -4.995561 c 0,-0.09515 0.006,-0.169206 0.0176,-0.222726 0.0177,-0.05947 0.0536,-0.104108 0.10697,-0.133841 0.0592,-0.03569 0.1448,-0.0566 0.25735,-0.06253 0.11254,-0.01189 0.26365,-0.01809 0.4532,-0.01809 h 0.16898 V 62.9021 h -2.31923 l -1.70584,4.97799 -1.78594,-4.97799 z" /></g><g
           id="g30772"
           style="fill:#c7c7c7;fill-opacity:0.996933;stroke:#000000;stroke-width:0.264583;stroke-dasharray:none;stroke-opacity:1"
           transform="translate(-22.569137,4.007787)"><g
             id="path30643"
             style="fill:#c7c7c7;fill-opacity:0.996933;stroke:#000000;stroke-width:0.264583;stroke-dasharray:none;stroke-opacity:1" /><g
             aria-label="C"
             id="text30700"
             style="font-size:7.05556px;font-family:'Tibetan Machine Uni';-inkscape-font-specification:'Tibetan Machine Uni';fill:#c7c7c7;fill-opacity:0.996933;stroke:#000000;stroke-width:0.0822061;stroke-dasharray:none;stroke-opacity:1"
             transform="matrix(3.5965424,0,0,2.8802571,-90.287629,-112.51243)" /></g></g><path
         id="rect30967-7"
         style="fill:#000000;fill-opacity:1;stroke:none;stroke-width:0.25342;stroke-dasharray:none"
         d="m 109.61668,38.438236 -0.70361,2.962035 -2.565,-0.02888 -0.0281,0.633833 2.42821,0.05129 -2.55367,9.290404 -1.9155,0.374424 0.0128,2.739473 6.22033,-0.162318 -0.0901,-2.561221 14.9909,-0.341563 -2.71211,-11.333307 -1.11938,-0.743372 -0.97621,0.893241 0.77841,10.619312 -1.08593,0.07817 -0.28784,-7.86092 -1.29553,-1.013734 0.64014,-0.800631 -1.18335,-0.193187 0.0531,-0.67715 0.29227,-0.377411 -0.58208,-0.172276 -0.10677,-0.311688 -0.33262,-0.01544 -0.27407,-0.169288 -0.47186,0.366956 -0.48761,0.04581 -0.16877,0.34206 -0.49942,0.194183 0.17714,0.494917 -0.0974,0.633833 -1.33047,0.204639 0.33655,0.925107 -1.34573,0.739388 -2.95861,7.931623 -0.6795,0.356001 -2.41049,-0.203145 2.27123,-9.257543 2.74558,0.01045 0.0792,-0.704534 -2.6142,-0.01 0.66622,-2.855483 z m 7.97149,1.721755 0.0443,1.24725 -0.52402,0.02589 -0.007,-1.260197 z m -0.72133,0.02191 -0.0447,1.253724 -0.5496,0.0065 0.11513,-1.240779 z m 4.0954,0.07653 1.45352,-0.02741 0.19865,1.059639 -1.57993,0.0092 z m -4.66173,4.092427 c 0.005,-1.12e-4 0.01,7e-6 0.0143,0 0.26813,-3.76e-4 0.53684,0.166185 0.99047,0.521306 l -0.68343,5.852871 -2.6639,0.08564 1.1804,-5.846895 c 0.56065,-0.391217 0.86302,-0.605906 1.16219,-0.612921 z m 2.42623,0.668189 c 0.21841,3.18e-4 0.43166,0.09237 0.66425,0.282311 l 0.22635,5.327083 -2.00161,0.06473 0.36657,-5.373885 c 0.26517,-0.191314 0.49747,-0.293981 0.72329,-0.299739 0.007,-1.8e-4 0.0141,-5.08e-4 0.0211,-4.97e-4 z m -5.00648,0.197169 c 0.007,-1.54e-4 0.0124,-6.1e-5 0.0187,0 0.17735,0.0017 0.35257,0.08904 0.57766,0.272852 l -1.09872,5.345505 -2.01194,0.06473 1.84662,-5.373388 c 0.27294,-0.196919 0.47276,-0.304916 0.66769,-0.309697 z"
         sodipodi:nodetypes="cccccccccccccccccccccccccccccccccccccccccccccccccccccccccccssccccssccccssssccccs" /><g
         id="g32068"><path
           id="rect32063"
           style="fill:#e3e3e3;fill-opacity:1;stroke:none;stroke-width:0.0529167;stroke-opacity:1"
           d="m 87.196847,72.203597 c 1.616631,-1.974372 3.905895,-1.765827 6.08849,-0.911932 2.138787,-1.165758 3.037969,-1.248622 4.881521,-0.321859 l 2.325992,2.393424 2.12638,2.890419 c -1.99184,-0.379159 -3.851829,-0.200572 -5.954377,0.348681 -2.265251,-0.771608 -4.199195,-0.445049 -6.008027,0.455965 z"
           sodipodi:nodetypes="cccccccc" /><path
           id="path410-3-9-2"
           style="fill:#000000;fill-opacity:1;stroke:none;stroke-width:0.0529167;stroke-dasharray:none;stroke-opacity:1"
           d="m 88.426207,63.027143 c -0.682317,0.01382 -0.03485,4.006133 -0.485306,4.031519 -0.450454,0.02539 -0.357433,-0.906246 -0.357433,-1.594434 0,-0.688198 -0.02797,-1.247368 -0.335886,-1.224264 -0.307917,0.0231 -0.323743,0.5108 -0.281827,1.428271 0.03545,0.775866 0.06912,1.385793 0.39952,1.825639 0.173386,0.230816 0.751285,0.418281 0.780467,1.196348 0.03324,0.886359 0.0047,1.584544 -0.275746,1.857367 -0.154056,0.149854 -0.624735,0.357527 -1.045774,0.461987 -0.944092,0.292151 -1.01081,0.04542 -0.741505,-0.304289 0.711138,-0.257086 0.451923,-0.968592 -0.475408,-1.30208 -0.927331,-0.333487 -2.235612,-0.76921 -2.469145,-0.04727 -0.107491,0.332297 0.112902,1.023499 -0.188369,1.331947 -0.757256,1.505901 -0.593433,2.753245 0.513662,3.826892 0.699649,0.67851 2.66545,2.603947 2.66545,2.603947 0,0 0.162464,-1.690747 0.101973,-2.341739 -0.355603,-1.344088 -0.206617,-1.490942 0.20439,-1.918723 0.499337,-0.519716 0.72534,-0.05484 0.919596,0.111368 0.197454,0.168948 0.989426,1.521852 1.692982,2.651542 0.456074,0.732311 1.028468,1.361845 1.481755,1.991901 2.292232,-1.901611 5.416239,-0.833536 6.23203,-0.903921 0.654289,-0.212846 2.139756,-0.726515 6.002857,-0.392198 -1.75719,-0.677741 -4.425549,-0.388261 -5.827431,0.03745 -2.946819,-0.681856 -4.549257,-0.396309 -6.170719,0.445089 0,0 -0.188363,0.09424 -1.917021,-2.558089 -0.569055,-0.873128 -1.23369,-1.598682 -1.182093,-1.89075 0.04456,-1.501667 3.46256,-1.903206 5.050803,-1.114234 0.532686,0.264616 0.897606,0.210255 1.582787,-0.194303 0.457616,-0.270188 1.052687,-0.406373 1.659621,-0.42168 1.011562,-0.02551 2.056501,0.284463 2.556302,0.868681 0.504776,0.590048 0.886353,0.68833 2.677561,0.68833 h 1.8191 v -1.108976 l -1.96321,-0.694532 C 99.82218,69.939321 98.212124,69.238718 97.472204,68.816928 96.732299,68.39513 95.973243,68.05005 95.785587,68.05005 c -0.187656,0 -1.017702,0.454858 -1.844438,1.011308 -1.242374,0.836218 -1.640832,1.084268 -3.064448,1.109368 -0.760628,0.101198 -1.653077,0.215488 -1.972861,-0.01781 -0.232847,-0.169878 -0.15919,-0.628901 -0.151782,-1.159149 0.0055,-0.643231 -0.284686,-1.131036 0.518729,-1.414431 0.609263,-0.214909 0.386256,-1.547687 0.387865,-2.279147 0.0018,-0.830951 -0.02089,-1.465913 -0.314226,-1.457327 -0.297114,0.0087 -0.267513,0.717074 -0.245068,1.524142 0.01922,0.691134 0.109472,1.725364 -0.16164,1.54467 -0.271111,-0.180695 -0.149757,-1.379171 -0.17794,-2.482365 -0.01935,-0.757652 -0.05575,-1.407796 -0.333559,-1.402169 z"
           sodipodi:nodetypes="szszsssscczscsccssscccccscssssscccssscscsssszsss" /></g><path
         id="rect4819"
         style="fill:#000000;fill-opacity:1;stroke:#000000;stroke-width:0.264583;stroke-dasharray:none;stroke-opacity:1"
         d="m 111.80971,29.707747 c -1.09182,3.554308 -4.37482,6.275418 -8.09304,6.275586 -3.70352,-5.48e-4 -6.976871,-2.703171 -8.080647,-6.238379 -6.019082,1.561864 -11.410561,3.442214 -15.070398,5.209502 v 36.879919 c 0,5.845008 10.424315,10.583334 23.283335,10.583333 12.85902,-1e-6 23.28333,-4.738326 23.28333,-10.583333 V 34.947738 c -3.65184,-1.935098 -9.15376,-3.764711 -15.32258,-5.239991 z m 1.25729,2.406572 c 4.60739,0.704564 8.68665,2.25836 11.81633,3.852995 V 53.975 H 104.775 V 38.043673 c 3.52509,-0.357145 6.63761,-2.796178 8.292,-5.929354 z m -18.699633,10e-4 c 1.654446,3.132491 4.766476,5.571061 8.290963,5.928321 V 53.975 H 82.55 V 35.972481 c 3.128752,-1.596212 7.208494,-3.151441 11.817367,-3.857129 z M 82.55,56.091667 h 20.10833 V 80.428682 C 93.874227,80.222643 82.55,76.199991 82.55,71.966667 Z m 22.225,0 h 20.10833 v 16.136482 c 0,3.971843 -11.45285,8.046849 -20.10833,8.205184 z" /></g></g></svg>
